# xmcd
#
# Track frame offsets: 
#        150
#        18968
#        54550
#        74455
#        93387
#        111212
#        128687
#        151909
#        176510
#        204709
#        220694
#        240294
#
# Disc length: 3454 seconds
#
# Revision: 2
# Processed by: cddbd v1.5.2PL0 Copyright (c) Steve Scherf et al.
# Submitted via: ExactAudioCopy v1.0b3
#
DISCID=9b0d7c0c
DTITLE=Clarence 'Gatemouth' Brown - Sings Louis Jordan
DYEAR=1973
DGENRE=Blues
TTITLE0=Choo Choo Ch'Boogie
TTITLE1=Somebody Done Changed the Lock of my Door
TTITLE2=Let the Good Times Roll (Take 2)
TTITLE3=Salt Pork, West Virginia
TTITLE4=Is You Is or Is You Ain't my Baby (Master Take 3)
TTITLE5=Caldonia
TTITLE6=Ain't Nobody Here but us Chickens
TTITLE7=Ain't Just Like a Woman
TTITLE8=Its Low Down Dirty Shame
TTITLE9=Is You Is or Is You Ain't my Baby (Take 1)
TTITLE10=Is You Is or Is You Ain't my Baby (Take 2)
TTITLE11=Let the Good Times Roll (Take 1)
EXTD=YEAR: 2001
EXTT0=
EXTT1=
EXTT2=
EXTT3=
EXTT4=
EXTT5=
EXTT6=
EXTT7=
EXTT8=
EXTT9=
EXTT10=
EXTT11=
PLAYORDER=
